<?xml version="1.0" encoding="UTF-8" standalone="no"?>
<!DOCTYPE svg PUBLIC "-//W3C//DTD SVG 1.1//EN"
"http://www.w3.org/Graphics/SVG/1.1/DTD/svg11.dtd">
<svg xmlns="http://www.w3.org/2000/svg" xmlns:xlink="http://www.w3.org/1999/xlink" version="1.1" width="200" height="200" viewBox="0 0 200 200">
  <desc>Centered Logo of Nanyang Polytechnic on a white background</desc>
  <rect width="200" height="200" fill="white"/>
  <g transform="translate(20 60) scale(1.5)">
    <path fill="#254aa5" fill-rule="nonzero" id="path472" d="m78.55093,2.5332l-5.44139,-0.34025l-14.75959,18.36339l-15.74064,-20.2187l-16.77905,0l0,2.26471l4.47611,0l19.0478,24.51488l0,15.30353l-32.62453,-42.08312l-16.696,0l0,2.26471l4.42273,0l0.06529,0l0,45.90065l-4.52164,0l0,2.2509l13.45606,0l0,-2.2509l-4.46031,0l0,-40.12302l32.79861,42.36803l18.76298,0.00792l0,-25.81243l17.99353,-22.41039l0.00005,0.0001z"/>
    <path fill="#ed1c24" fill-rule="nonzero" id="path484" d="m106.63879,14.9852c0,-11.47017 -12.60753,-14.52017 -21.544,-14.64679l-0.22151,0l-0.35802,0l-17.69687,0l0,2.26481l17.25974,0c3.16673,0.31843 7.03758,2.1718 9.29643,5.48489c1.2659,1.8612 2.07488,4.10225 2.04719,6.94461c-0.07516,8.04436 -7.10088,12.43346 -12.89434,12.16245l-10.73439,0l0,0.44504l-0.01385,0l0,23.13629l15.69318,0l0,-2.24897l-4.48208,0l0,-19.09721c10.83923,-0.43712 23.63074,-2.97091 23.64854,-14.44503"/>
  </g>
</svg>
